<svg class="marks" width="563" height="347" viewBox="0 0 563 347" version="1.1" xmlns="http://www.w3.org/2000/svg" xmlns:xlink="http://www.w3.org/1999/xlink"><rect width="563" height="347" style="fill: white;"></rect><g transform="translate(78,10)"><g class="mark-group role-frame root" role="graphics-object" aria-roledescription="group mark container"><g transform="translate(0,0)"><path class="background" aria-hidden="true" d="M0.5,0.5h400v300h-400Z" style="fill: none; stroke: #ddd;"></path><g><g class="mark-group role-axis" role="graphics-symbol" aria-roledescription="axis" aria-label="X-axis for a linear scale with values from 0 to 1,400,000"><g transform="translate(0.5,300.5)"><path class="background" aria-hidden="true" d="M0,0h0v0h0Z" style="pointer-events: none; fill: none;"></path><g><g class="mark-rule role-axis-grid" style="pointer-events: none;"><line transform="translate(0,-300)" x2="0" y2="300" style="fill: none; stroke: #ddd; stroke-width: 1; opacity: 1;"></line><line transform="translate(29,-300)" x2="0" y2="300" style="fill: none; stroke: #ddd; stroke-width: 1; opacity: 1;"></line><line transform="translate(57,-300)" x2="0" y2="300" style="fill: none; stroke: #ddd; stroke-width: 1; opacity: 1;"></line><line transform="translate(86,-300)" x2="0" y2="300" style="fill: none; stroke: #ddd; stroke-width: 1; opacity: 1;"></line><line transform="translate(114,-300)" x2="0" y2="300" style="fill: none; stroke: #ddd; stroke-width: 1; opacity: 1;"></line><line transform="translate(143,-300)" x2="0" y2="300" style="fill: none; stroke: #ddd; stroke-width: 1; opacity: 1;"></line><line transform="translate(171,-300)" x2="0" y2="300" style="fill: none; stroke: #ddd; stroke-width: 1; opacity: 1;"></line><line transform="translate(200,-300)" x2="0" y2="300" style="fill: none; stroke: #ddd; stroke-width: 1; opacity: 1;"></line><line transform="translate(229,-300)" x2="0" y2="300" style="fill: none; stroke: #ddd; stroke-width: 1; opacity: 1;"></line><line transform="translate(257,-300)" x2="0" y2="300" style="fill: none; stroke: #ddd; stroke-width: 1; opacity: 1;"></line><line transform="translate(286,-300)" x2="0" y2="300" style="fill: none; stroke: #ddd; stroke-width: 1; opacity: 1;"></line><line transform="translate(314,-300)" x2="0" y2="300" style="fill: none; stroke: #ddd; stroke-width: 1; opacity: 1;"></line><line transform="translate(343,-300)" x2="0" y2="300" style="fill: none; stroke: #ddd; stroke-width: 1; opacity: 1;"></line><line transform="translate(371,-300)" x2="0" y2="300" style="fill: none; stroke: #ddd; stroke-width: 1; opacity: 1;"></line><line transform="translate(400,-300)" x2="0" y2="300" style="fill: none; stroke: #ddd; stroke-width: 1; opacity: 1;"></line></g></g><path class="foreground" aria-hidden="true" d="" style="pointer-events: none; display: none; fill: none;"></path></g></g><g class="mark-group role-axis" role="graphics-symbol" aria-roledescription="axis" aria-label="Y-axis for a linear scale with values from 0 to 11,000,000"><g transform="translate(0.5,0.5)"><path class="background" aria-hidden="true" d="M0,0h0v0h0Z" style="pointer-events: none; fill: none;"></path><g><g class="mark-rule role-axis-grid" style="pointer-events: none;"><line transform="translate(0,300)" x2="400" y2="0" style="fill: none; stroke: #ddd; stroke-width: 1; opacity: 1;"></line><line transform="translate(0,273)" x2="400" y2="0" style="fill: none; stroke: #ddd; stroke-width: 1; opacity: 1;"></line><line transform="translate(0,245)" x2="400" y2="0" style="fill: none; stroke: #ddd; stroke-width: 1; opacity: 1;"></line><line transform="translate(0,218)" x2="400" y2="0" style="fill: none; stroke: #ddd; stroke-width: 1; opacity: 1;"></line><line transform="translate(0,191)" x2="400" y2="0" style="fill: none; stroke: #ddd; stroke-width: 1; opacity: 1;"></line><line transform="translate(0,164)" x2="400" y2="0" style="fill: none; stroke: #ddd; stroke-width: 1; opacity: 1;"></line><line transform="translate(0,136)" x2="400" y2="0" style="fill: none; stroke: #ddd; stroke-width: 1; opacity: 1;"></line><line transform="translate(0,109)" x2="400" y2="0" style="fill: none; stroke: #ddd; stroke-width: 1; opacity: 1;"></line><line transform="translate(0,82)" x2="400" y2="0" style="fill: none; stroke: #ddd; stroke-width: 1; opacity: 1;"></line><line transform="translate(0,55)" x2="400" y2="0" style="fill: none; stroke: #ddd; stroke-width: 1; opacity: 1;"></line><line transform="translate(0,27)" x2="400" y2="0" style="fill: none; stroke: #ddd; stroke-width: 1; opacity: 1;"></line><line transform="translate(0,0)" x2="400" y2="0" style="fill: none; stroke: #ddd; stroke-width: 1; opacity: 1;"></line></g></g><path class="foreground" aria-hidden="true" d="" style="pointer-events: none; display: none; fill: none;"></path></g></g><g class="mark-group role-axis" role="graphics-symbol" aria-roledescription="axis" aria-label="X-axis titled 'FRIMS' for a linear scale with values from 0 to 1,400,000"><g transform="translate(0.5,300.5)"><path class="background" aria-hidden="true" d="M0,0h0v0h0Z" style="pointer-events: none; fill: none;"></path><g><g class="mark-rule role-axis-tick" style="pointer-events: none;"><line transform="translate(0,0)" x2="0" y2="5" style="fill: none; stroke: #888; stroke-width: 1; opacity: 1;"></line><line transform="translate(29,0)" x2="0" y2="5" style="fill: none; stroke: #888; stroke-width: 1; opacity: 1;"></line><line transform="translate(57,0)" x2="0" y2="5" style="fill: none; stroke: #888; stroke-width: 1; opacity: 1;"></line><line transform="translate(86,0)" x2="0" y2="5" style="fill: none; stroke: #888; stroke-width: 1; opacity: 1;"></line><line transform="translate(114,0)" x2="0" y2="5" style="fill: none; stroke: #888; stroke-width: 1; opacity: 1;"></line><line transform="translate(143,0)" x2="0" y2="5" style="fill: none; stroke: #888; stroke-width: 1; opacity: 1;"></line><line transform="translate(171,0)" x2="0" y2="5" style="fill: none; stroke: #888; stroke-width: 1; opacity: 1;"></line><line transform="translate(200,0)" x2="0" y2="5" style="fill: none; stroke: #888; stroke-width: 1; opacity: 1;"></line><line transform="translate(229,0)" x2="0" y2="5" style="fill: none; stroke: #888; stroke-width: 1; opacity: 1;"></line><line transform="translate(257,0)" x2="0" y2="5" style="fill: none; stroke: #888; stroke-width: 1; opacity: 1;"></line><line transform="translate(286,0)" x2="0" y2="5" style="fill: none; stroke: #888; stroke-width: 1; opacity: 1;"></line><line transform="translate(314,0)" x2="0" y2="5" style="fill: none; stroke: #888; stroke-width: 1; opacity: 1;"></line><line transform="translate(343,0)" x2="0" y2="5" style="fill: none; stroke: #888; stroke-width: 1; opacity: 1;"></line><line transform="translate(371,0)" x2="0" y2="5" style="fill: none; stroke: #888; stroke-width: 1; opacity: 1;"></line><line transform="translate(400,0)" x2="0" y2="5" style="fill: none; stroke: #888; stroke-width: 1; opacity: 1;"></line></g><g class="mark-text role-axis-label" style="pointer-events: none;"><text text-anchor="start" transform="translate(0,15)" style="font-family: sans-serif; font-size: 10px; fill: #000; opacity: 1;">0</text><text text-anchor="middle" transform="translate(28.57142857142857,15)" style="font-family: sans-serif; font-size: 10px; fill: #000; opacity: 0;">100,000</text><text text-anchor="middle" transform="translate(57.14285714285714,15)" style="font-family: sans-serif; font-size: 10px; fill: #000; opacity: 0;">200,000</text><text text-anchor="middle" transform="translate(85.71428571428571,15)" style="font-family: sans-serif; font-size: 10px; fill: #000; opacity: 0;">300,000</text><text text-anchor="middle" transform="translate(114.28571428571428,15)" style="font-family: sans-serif; font-size: 10px; fill: #000; opacity: 1;">400,000</text><text text-anchor="middle" transform="translate(142.85714285714286,15)" style="font-family: sans-serif; font-size: 10px; fill: #000; opacity: 0;">500,000</text><text text-anchor="middle" transform="translate(171.42857142857142,15)" style="font-family: sans-serif; font-size: 10px; fill: #000; opacity: 0;">600,000</text><text text-anchor="middle" transform="translate(200,15)" style="font-family: sans-serif; font-size: 10px; fill: #000; opacity: 0;">700,000</text><text text-anchor="middle" transform="translate(228.57142857142856,15)" style="font-family: sans-serif; font-size: 10px; fill: #000; opacity: 1;">800,000</text><text text-anchor="middle" transform="translate(257.14285714285717,15)" style="font-family: sans-serif; font-size: 10px; fill: #000; opacity: 0;">900,000</text><text text-anchor="middle" transform="translate(285.7142857142857,15)" style="font-family: sans-serif; font-size: 10px; fill: #000; opacity: 0;">1,000,000</text><text text-anchor="middle" transform="translate(314.2857142857143,15)" style="font-family: sans-serif; font-size: 10px; fill: #000; opacity: 0;">1,100,000</text><text text-anchor="middle" transform="translate(342.85714285714283,15)" style="font-family: sans-serif; font-size: 10px; fill: #000; opacity: 1;">1,200,000</text><text text-anchor="middle" transform="translate(371.42857142857144,15)" style="font-family: sans-serif; font-size: 10px; fill: #000; opacity: 0;">1,300,000</text><text text-anchor="end" transform="translate(400,15)" style="font-family: sans-serif; font-size: 10px; fill: #000; opacity: 0;">1,400,000</text></g><g class="mark-rule role-axis-domain" style="pointer-events: none;"><line transform="translate(0,0)" x2="400" y2="0" style="fill: none; stroke: #888; stroke-width: 1; opacity: 1;"></line></g><g class="mark-text role-axis-title" style="pointer-events: none;"><text text-anchor="middle" transform="translate(200,30)" style="font-family: sans-serif; font-size: 11px; font-weight: bold; fill: #000; opacity: 1;">FRIMS</text></g></g><path class="foreground" aria-hidden="true" d="" style="pointer-events: none; display: none; fill: none;"></path></g></g><g class="mark-group role-axis" role="graphics-symbol" aria-roledescription="axis" aria-label="Y-axis titled 'Average of FRIDT' for a linear scale with values from 0 to 11,000,000"><g transform="translate(0.5,0.5)"><path class="background" aria-hidden="true" d="M0,0h0v0h0Z" style="pointer-events: none; fill: none;"></path><g><g class="mark-rule role-axis-tick" style="pointer-events: none;"><line transform="translate(0,300)" x2="-5" y2="0" style="fill: none; stroke: #888; stroke-width: 1; opacity: 1;"></line><line transform="translate(0,273)" x2="-5" y2="0" style="fill: none; stroke: #888; stroke-width: 1; opacity: 1;"></line><line transform="translate(0,245)" x2="-5" y2="0" style="fill: none; stroke: #888; stroke-width: 1; opacity: 1;"></line><line transform="translate(0,218)" x2="-5" y2="0" style="fill: none; stroke: #888; stroke-width: 1; opacity: 1;"></line><line transform="translate(0,191)" x2="-5" y2="0" style="fill: none; stroke: #888; stroke-width: 1; opacity: 1;"></line><line transform="translate(0,164)" x2="-5" y2="0" style="fill: none; stroke: #888; stroke-width: 1; opacity: 1;"></line><line transform="translate(0,136)" x2="-5" y2="0" style="fill: none; stroke: #888; stroke-width: 1; opacity: 1;"></line><line transform="translate(0,109)" x2="-5" y2="0" style="fill: none; stroke: #888; stroke-width: 1; opacity: 1;"></line><line transform="translate(0,82)" x2="-5" y2="0" style="fill: none; stroke: #888; stroke-width: 1; opacity: 1;"></line><line transform="translate(0,55)" x2="-5" y2="0" style="fill: none; stroke: #888; stroke-width: 1; opacity: 1;"></line><line transform="translate(0,27)" x2="-5" y2="0" style="fill: none; stroke: #888; stroke-width: 1; opacity: 1;"></line><line transform="translate(0,0)" x2="-5" y2="0" style="fill: none; stroke: #888; stroke-width: 1; opacity: 1;"></line></g><g class="mark-text role-axis-label" style="pointer-events: none;"><text text-anchor="end" transform="translate(-7,303)" style="font-family: sans-serif; font-size: 10px; fill: #000; opacity: 1;">0</text><text text-anchor="end" transform="translate(-7,275.7272727272727)" style="font-family: sans-serif; font-size: 10px; fill: #000; opacity: 1;">1,000,000</text><text text-anchor="end" transform="translate(-7,248.45454545454544)" style="font-family: sans-serif; font-size: 10px; fill: #000; opacity: 1;">2,000,000</text><text text-anchor="end" transform="translate(-7,221.1818181818182)" style="font-family: sans-serif; font-size: 10px; fill: #000; opacity: 1;">3,000,000</text><text text-anchor="end" transform="translate(-7,193.9090909090909)" style="font-family: sans-serif; font-size: 10px; fill: #000; opacity: 1;">4,000,000</text><text text-anchor="end" transform="translate(-7,166.63636363636363)" style="font-family: sans-serif; font-size: 10px; fill: #000; opacity: 1;">5,000,000</text><text text-anchor="end" transform="translate(-7,139.36363636363637)" style="font-family: sans-serif; font-size: 10px; fill: #000; opacity: 1;">6,000,000</text><text text-anchor="end" transform="translate(-7,112.0909090909091)" style="font-family: sans-serif; font-size: 10px; fill: #000; opacity: 1;">7,000,000</text><text text-anchor="end" transform="translate(-7,84.81818181818181)" style="font-family: sans-serif; font-size: 10px; fill: #000; opacity: 1;">8,000,000</text><text text-anchor="end" transform="translate(-7,57.54545454545453)" style="font-family: sans-serif; font-size: 10px; fill: #000; opacity: 1;">9,000,000</text><text text-anchor="end" transform="translate(-7,30.27272727272728)" style="font-family: sans-serif; font-size: 10px; fill: #000; opacity: 1;">10,000,000</text><text text-anchor="end" transform="translate(-7,3)" style="font-family: sans-serif; font-size: 10px; fill: #000; opacity: 1;">11,000,000</text></g><g class="mark-rule role-axis-domain" style="pointer-events: none;"><line transform="translate(0,300)" x2="0" y2="-300" style="fill: none; stroke: #888; stroke-width: 1; opacity: 1;"></line></g><g class="mark-text role-axis-title" style="pointer-events: none;"><text text-anchor="middle" transform="translate(-61.048828125,150) rotate(-90) translate(0,-2)" style="font-family: sans-serif; font-size: 11px; font-weight: bold; fill: #000; opacity: 1;">Average of FRIDT</text></g></g><path class="foreground" aria-hidden="true" d="" style="pointer-events: none; display: none; fill: none;"></path></g></g><g class="mark-symbol role-mark marks" role="graphics-symbol" aria-roledescription="symbol mark container"><path transform="translate(46.49067600285714,280.5761414509091)" d="M1.5,0A1.5,1.5,0,1,1,-1.5,0A1.5,1.5,0,1,1,1.5,0" style="fill: none; stroke: #4c78a8; stroke-width: 2;"></path><path transform="translate(80.66252931428572,253.47450551454546)" d="M5.619905100029122,0A5.619905100029122,5.619905100029122,0,1,1,-5.619905100029122,0A5.619905100029122,5.619905100029122,0,1,1,5.619905100029122,0" style="fill: none; stroke: #4c78a8; stroke-width: 2;"></path><path transform="translate(64.5879899457143,276.08325343363634)" d="M7.804912982645397,0A7.804912982645397,7.804912982645397,0,1,1,-7.804912982645397,0A7.804912982645397,7.804912982645397,0,1,1,7.804912982645397,0" style="fill: none; stroke: #4c78a8; stroke-width: 2;"></path><path transform="translate(64.18935197714285,275.83158065454546)" d="M9.5,0A9.5,9.5,0,1,1,-9.5,0A9.5,9.5,0,1,1,9.5,0" style="fill: none; stroke: #4c78a8; stroke-width: 2;"></path><path transform="translate(243.48115757142858,145.2400980818182)" d="M1.5,0A1.5,1.5,0,1,1,-1.5,0A1.5,1.5,0,1,1,1.5,0" style="fill: none; stroke: #4c78a8; stroke-width: 2;"></path><path transform="translate(192.63086548571428,204.38981710909093)" d="M5.619905100029122,0A5.619905100029122,5.619905100029122,0,1,1,-5.619905100029122,0A5.619905100029122,5.619905100029122,0,1,1,5.619905100029122,0" style="fill: none; stroke: #4c78a8; stroke-width: 2;"></path><path transform="translate(248.51359048571427,148.0125809181818)" d="M7.804912982645397,0A7.804912982645397,7.804912982645397,0,1,1,-7.804912982645397,0A7.804912982645397,7.804912982645397,0,1,1,7.804912982645397,0" style="fill: none; stroke: #4c78a8; stroke-width: 2;"></path><path transform="translate(297.27057208571426,124.86505570909091)" d="M9.5,0A9.5,9.5,0,1,1,-9.5,0A9.5,9.5,0,1,1,9.5,0" style="fill: none; stroke: #4c78a8; stroke-width: 2;"></path><path transform="translate(259.69722634285716,136.44845239090907)" d="M1.5,0A1.5,1.5,0,1,1,-1.5,0A1.5,1.5,0,1,1,1.5,0" style="fill: none; stroke: #72b7b2; stroke-width: 2;"></path><path transform="translate(136.66759197142858,227.22151939090912)" d="M5.619905100029122,0A5.619905100029122,5.619905100029122,0,1,1,-5.619905100029122,0A5.619905100029122,5.619905100029122,0,1,1,5.619905100029122,0" style="fill: none; stroke: #72b7b2; stroke-width: 2;"></path><path transform="translate(323.6466268571429,113.1078336272727)" d="M7.804912982645397,0A7.804912982645397,7.804912982645397,0,1,1,-7.804912982645397,0A7.804912982645397,7.804912982645397,0,1,1,7.804912982645397,0" style="fill: none; stroke: #72b7b2; stroke-width: 2;"></path><path transform="translate(286.67370517142854,98.70880988181815)" d="M1.5,0A1.5,1.5,0,1,1,-1.5,0A1.5,1.5,0,1,1,1.5,0" style="fill: none; stroke: #f58518; stroke-width: 2;"></path><path transform="translate(280.16838454285715,133.71893956363638)" d="M9.5,0A9.5,9.5,0,1,1,-9.5,0A9.5,9.5,0,1,1,9.5,0" style="fill: none; stroke: #72b7b2; stroke-width: 2;"></path><path transform="translate(392.89651605714283,16.019417345454556)" d="M5.619905100029122,0A5.619905100029122,5.619905100029122,0,1,1,-5.619905100029122,0A5.619905100029122,5.619905100029122,0,1,1,5.619905100029122,0" style="fill: none; stroke: #f58518; stroke-width: 2;"></path><path transform="translate(310.99239317142855,143.04243542727275)" d="M1.5,0A1.5,1.5,0,1,1,-1.5,0A1.5,1.5,0,1,1,1.5,0" style="fill: none; stroke: #54a24b; stroke-width: 2;"></path><path transform="translate(241.9890862,183.33008506363637)" d="M5.619905100029122,0A5.619905100029122,5.619905100029122,0,1,1,-5.619905100029122,0A5.619905100029122,5.619905100029122,0,1,1,5.619905100029122,0" style="fill: none; stroke: #54a24b; stroke-width: 2;"></path><path transform="translate(312.89713797142855,133.04966176363638)" d="M7.804912982645397,0A7.804912982645397,7.804912982645397,0,1,1,-7.804912982645397,0A7.804912982645397,7.804912982645397,0,1,1,7.804912982645397,0" style="fill: none; stroke: #54a24b; stroke-width: 2;"></path><path transform="translate(273.1164235714286,91.41823835454548)" d="M7.804912982645397,0A7.804912982645397,7.804912982645397,0,1,1,-7.804912982645397,0A7.804912982645397,7.804912982645397,0,1,1,7.804912982645397,0" style="fill: none; stroke: #f58518; stroke-width: 2;"></path><path transform="translate(234.61167385714288,187.08600111818183)" d="M9.5,0A9.5,9.5,0,1,1,-9.5,0A9.5,9.5,0,1,1,9.5,0" style="fill: none; stroke: #54a24b; stroke-width: 2;"></path><path transform="translate(359.51595311428565,34.40827559999998)" d="M9.5,0A9.5,9.5,0,1,1,-9.5,0A9.5,9.5,0,1,1,9.5,0" style="fill: none; stroke: #f58518; stroke-width: 2;"></path><path transform="translate(206.8063982,158.2876575272727)" d="M1.5,0A1.5,1.5,0,1,1,-1.5,0A1.5,1.5,0,1,1,1.5,0" style="fill: none; stroke: #e45756; stroke-width: 2;"></path><path transform="translate(285.08174080000003,141.36946279090907)" d="M5.619905100029122,0A5.619905100029122,5.619905100029122,0,1,1,-5.619905100029122,0A5.619905100029122,5.619905100029122,0,1,1,5.619905100029122,0" style="fill: none; stroke: #e45756; stroke-width: 2;"></path><path transform="translate(200.64155582857143,180.8092581)" d="M7.804912982645397,0A7.804912982645397,7.804912982645397,0,1,1,-7.804912982645397,0A7.804912982645397,7.804912982645397,0,1,1,7.804912982645397,0" style="fill: none; stroke: #e45756; stroke-width: 2;"></path><path transform="translate(309.6102675714286,111.13914150000002)" d="M9.5,0A9.5,9.5,0,1,1,-9.5,0A9.5,9.5,0,1,1,9.5,0" style="fill: none; stroke: #e45756; stroke-width: 2;"></path></g><g class="mark-group role-legend" role="graphics-symbol" aria-roledescription="legend" aria-label="Symbol legend titled 'Solvent' for stroke color with 5 values: D2O_40G, H2O, H2OG, MeCNG, THFG"><g transform="translate(418,0)"><path class="background" aria-hidden="true" d="M0,0h62v93h-62Z" style="pointer-events: none; fill: none;"></path><g><g class="mark-group role-legend-entry"><g transform="translate(0,16)"><path class="background" aria-hidden="true" d="M0,0h0v0h0Z" style="pointer-events: none; fill: none;"></path><g><g class="mark-group role-scope" role="graphics-object" aria-roledescription="group mark container"><g transform="translate(0,0)"><path class="background" aria-hidden="true" d="M0,0h61.0244140625v12.5h-61.0244140625Z" style="pointer-events: none; fill: none; opacity: 1;"></path><g><g class="mark-symbol role-legend-symbol" style="pointer-events: none;"><path transform="translate(6,6)" d="M5,0A5,5,0,1,1,-5,0A5,5,0,1,1,5,0" style="fill: none; stroke: #4c78a8; stroke-width: 1.5; opacity: 1;"></path></g><g class="mark-text role-legend-label" style="pointer-events: none;"><text text-anchor="start" transform="translate(16,9)" style="font-family: sans-serif; font-size: 10px; fill: #000; opacity: 1;">D2O_40G</text></g></g><path class="foreground" aria-hidden="true" d="" style="pointer-events: none; display: none; fill: none;"></path></g><g transform="translate(0,16)"><path class="background" aria-hidden="true" d="M0,0h61.0244140625v12.5h-61.0244140625Z" style="pointer-events: none; fill: none; opacity: 1;"></path><g><g class="mark-symbol role-legend-symbol" style="pointer-events: none;"><path transform="translate(6,6)" d="M5,0A5,5,0,1,1,-5,0A5,5,0,1,1,5,0" style="fill: none; stroke: #f58518; stroke-width: 1.5; opacity: 1;"></path></g><g class="mark-text role-legend-label" style="pointer-events: none;"><text text-anchor="start" transform="translate(16,9)" style="font-family: sans-serif; font-size: 10px; fill: #000; opacity: 1;">H2O</text></g></g><path class="foreground" aria-hidden="true" d="" style="pointer-events: none; display: none; fill: none;"></path></g><g transform="translate(0,32)"><path class="background" aria-hidden="true" d="M0,0h61.0244140625v12.5h-61.0244140625Z" style="pointer-events: none; fill: none; opacity: 1;"></path><g><g class="mark-symbol role-legend-symbol" style="pointer-events: none;"><path transform="translate(6,6)" d="M5,0A5,5,0,1,1,-5,0A5,5,0,1,1,5,0" style="fill: none; stroke: #e45756; stroke-width: 1.5; opacity: 1;"></path></g><g class="mark-text role-legend-label" style="pointer-events: none;"><text text-anchor="start" transform="translate(16,9)" style="font-family: sans-serif; font-size: 10px; fill: #000; opacity: 1;">H2OG</text></g></g><path class="foreground" aria-hidden="true" d="" style="pointer-events: none; display: none; fill: none;"></path></g><g transform="translate(0,48)"><path class="background" aria-hidden="true" d="M0,0h61.0244140625v12.5h-61.0244140625Z" style="pointer-events: none; fill: none; opacity: 1;"></path><g><g class="mark-symbol role-legend-symbol" style="pointer-events: none;"><path transform="translate(6,6)" d="M5,0A5,5,0,1,1,-5,0A5,5,0,1,1,5,0" style="fill: none; stroke: #72b7b2; stroke-width: 1.5; opacity: 1;"></path></g><g class="mark-text role-legend-label" style="pointer-events: none;"><text text-anchor="start" transform="translate(16,9)" style="font-family: sans-serif; font-size: 10px; fill: #000; opacity: 1;">MeCNG</text></g></g><path class="foreground" aria-hidden="true" d="" style="pointer-events: none; display: none; fill: none;"></path></g><g transform="translate(0,64)"><path class="background" aria-hidden="true" d="M0,0h61.0244140625v12.5h-61.0244140625Z" style="pointer-events: none; fill: none; opacity: 1;"></path><g><g class="mark-symbol role-legend-symbol" style="pointer-events: none;"><path transform="translate(6,6)" d="M5,0A5,5,0,1,1,-5,0A5,5,0,1,1,5,0" style="fill: none; stroke: #54a24b; stroke-width: 1.5; opacity: 1;"></path></g><g class="mark-text role-legend-label" style="pointer-events: none;"><text text-anchor="start" transform="translate(16,9)" style="font-family: sans-serif; font-size: 10px; fill: #000; opacity: 1;">THFG</text></g></g><path class="foreground" aria-hidden="true" d="" style="pointer-events: none; display: none; fill: none;"></path></g></g></g><path class="foreground" aria-hidden="true" d="" style="pointer-events: none; display: none; fill: none;"></path></g></g><g class="mark-text role-legend-title" style="pointer-events: none;"><text text-anchor="start" transform="translate(0,9)" style="font-family: sans-serif; font-size: 11px; font-weight: bold; fill: #000; opacity: 1;">Solvent</text></g></g><path class="foreground" aria-hidden="true" d="" style="pointer-events: none; display: none; fill: none;"></path></g></g><g class="mark-group role-legend" role="graphics-symbol" aria-roledescription="legend" aria-label="Symbol legend titled 'Condition' for size with 4 values: 1, 2, 3, 4"><g transform="translate(418,101)"><path class="background" aria-hidden="true" d="M0,0h52v90h-52Z" style="pointer-events: none; fill: none;"></path><g><g class="mark-group role-legend-entry"><g transform="translate(0,16)"><path class="background" aria-hidden="true" d="M0,0h0v0h0Z" style="pointer-events: none; fill: none;"></path><g><g class="mark-group role-scope" role="graphics-object" aria-roledescription="group mark container"><g transform="translate(0,0)"><path class="background" aria-hidden="true" d="M0,0h30.5615234375v10h-30.5615234375Z" style="pointer-events: none; fill: none; opacity: 1;"></path><g><g class="mark-symbol role-legend-symbol" style="pointer-events: none;"><path transform="translate(10.5,5)" d="M1.5,0A1.5,1.5,0,1,1,-1.5,0A1.5,1.5,0,1,1,1.5,0" style="fill: none; stroke: #888; stroke-width: 1.5; opacity: 1;"></path></g><g class="mark-text role-legend-label" style="pointer-events: none;"><text text-anchor="start" transform="translate(25,8)" style="font-family: sans-serif; font-size: 10px; fill: #000; opacity: 1;">1</text></g></g><path class="foreground" aria-hidden="true" d="" style="pointer-events: none; display: none; fill: none;"></path></g><g transform="translate(0,13)"><path class="background" aria-hidden="true" d="M0,0h30.5615234375v13.619905100029122h-30.5615234375Z" style="pointer-events: none; fill: none; opacity: 1;"></path><g><g class="mark-symbol role-legend-symbol" style="pointer-events: none;"><path transform="translate(10.5,6.5)" d="M5.619905100029122,0A5.619905100029122,5.619905100029122,0,1,1,-5.619905100029122,0A5.619905100029122,5.619905100029122,0,1,1,5.619905100029122,0" style="fill: none; stroke: #888; stroke-width: 1.5; opacity: 1;"></path></g><g class="mark-text role-legend-label" style="pointer-events: none;"><text text-anchor="start" transform="translate(25,9.5)" style="font-family: sans-serif; font-size: 10px; fill: #000; opacity: 1;">2</text></g></g><path class="foreground" aria-hidden="true" d="" style="pointer-events: none; display: none; fill: none;"></path></g><g transform="translate(0,30)"><path class="background" aria-hidden="true" d="M0,0h30.5615234375v18.304912982645398h-30.5615234375Z" style="pointer-events: none; fill: none; opacity: 1;"></path><g><g class="mark-symbol role-legend-symbol" style="pointer-events: none;"><path transform="translate(10.5,9)" d="M7.804912982645397,0A7.804912982645397,7.804912982645397,0,1,1,-7.804912982645397,0A7.804912982645397,7.804912982645397,0,1,1,7.804912982645397,0" style="fill: none; stroke: #888; stroke-width: 1.5; opacity: 1;"></path></g><g class="mark-text role-legend-label" style="pointer-events: none;"><text text-anchor="start" transform="translate(25,12)" style="font-family: sans-serif; font-size: 10px; fill: #000; opacity: 1;">3</text></g></g><path class="foreground" aria-hidden="true" d="" style="pointer-events: none; display: none; fill: none;"></path></g><g transform="translate(0,52)"><path class="background" aria-hidden="true" d="M0,0h30.5615234375v21.5h-30.5615234375Z" style="pointer-events: none; fill: none; opacity: 1;"></path><g><g class="mark-symbol role-legend-symbol" style="pointer-events: none;"><path transform="translate(10.5,10.5)" d="M9.5,0A9.5,9.5,0,1,1,-9.5,0A9.5,9.5,0,1,1,9.5,0" style="fill: none; stroke: #888; stroke-width: 1.5; opacity: 1;"></path></g><g class="mark-text role-legend-label" style="pointer-events: none;"><text text-anchor="start" transform="translate(25,13.5)" style="font-family: sans-serif; font-size: 10px; fill: #000; opacity: 1;">4</text></g></g><path class="foreground" aria-hidden="true" d="" style="pointer-events: none; display: none; fill: none;"></path></g></g></g><path class="foreground" aria-hidden="true" d="" style="pointer-events: none; display: none; fill: none;"></path></g></g><g class="mark-text role-legend-title" style="pointer-events: none;"><text text-anchor="start" transform="translate(0,9)" style="font-family: sans-serif; font-size: 11px; font-weight: bold; fill: #000; opacity: 1;">Condition</text></g></g><path class="foreground" aria-hidden="true" d="" style="pointer-events: none; display: none; fill: none;"></path></g></g></g><path class="foreground" aria-hidden="true" d="" style="display: none; fill: none;"></path></g></g></g></svg>